<?xml version="1.0" encoding="UTF-8" standalone="no"?>
<svg
   width="100"
   height="100"
   viewBox="0 0 100 100"
   fill="none"
   version="1.1"
   id="svg1"
   xmlns="http://www.w3.org/2000/svg"
   xmlns:svg="http://www.w3.org/2000/svg">
  <circle cx="50" cy="50" r="50" fill="#00052E"/>
  <path
     d="m 50,25 c -13.807,0 -25,11.193 -25,25 0,13.807 11.193,25 25,25 13.807,0 25,-11.193 25,-25 0,-13.807 -11.193,-25 -25,-25 z m 0,45 c -11.046,0 -20,-8.954 -20,-20 0,-11.046 8.954,-20 20,-20 11.046,0 20,8.954 20,20 0,11.046 -8.954,20 -20,20 z"
     fill="#00ffcc"
     id="path1" />
  <path
     d="m 50,35 c -8.284,0 -15,6.716 -15,15 0,8.284 6.716,15 15,15 8.284,0 15,-6.716 15,-15 0,-8.284 -6.716,-15 -15,-15 z m 0,25 c -5.523,0 -10,-4.477 -10,-10 0,-5.523 4.477,-10 10,-10 5.523,0 10,4.477 10,10 0,5.523 -4.477,10 -10,10 z"
     fill="#00ccff"
     id="path2" />
  <text
     xml:space="preserve"
     style="font-style:normal;font-variant:normal;font-weight:bold;font-stretch:normal;font-size:24px;font-family:Arial;-inkscape-font-specification:'Arial Bold';fill:#ffffff;fill-opacity:1;stroke:none;stroke-width:1px;stroke-linecap:butt;stroke-linejoin:miter;stroke-opacity:1"
     x="38"
     y="58"
     id="text1"><tspan
       id="tspan1"
       x="38"
       y="58"
       style="font-style:normal;font-variant:normal;font-weight:bold;font-stretch:normal;font-size:24px;font-family:Arial;-inkscape-font-specification:'Arial Bold';fill:#ffffff">AI</tspan></text>
</svg>
